<svg xmlns="http://www.w3.org/2000/svg" viewBox="0 0 64 64" role="img" aria-label="VIBY">
  <defs>
    <linearGradient id="g" x1="0%" y1="0%" x2="100%" y2="100%">
      <stop offset="0%" stop-color="var(--accent, #4a1f2e)"/>
      <stop offset="100%" stop-color="#3d2e24"/>
    </linearGradient>
  </defs>
  <circle cx="32" cy="32" r="30" fill="url(#g)" opacity="0.2"/>
  <path fill="url(#g)" d="M20 28c0-6 5-11 12-11s12 5 12 11v2c0 8-6 14-12 18-6-4-12-10-12-18v-2zm12-7a7 7 0 0 0-7 7v2c0 5 4 9 7 12 3-3 7-7 7-12v-2a7 7 0 0 0-7-7z"/>
  <circle cx="26" cy="30" r="2" fill="#3d2e24"/>
  <circle cx="38" cy="30" r="2" fill="#3d2e24"/>
  <path stroke="#3d2e24" stroke-width="2" stroke-linecap="round" fill="none" d="M28 38q4 4 8 0"/>
</svg>
